<?xml version="1.0" encoding="utf-8"?>
<!-- Generator: Adobe Illustrator 17.1.0, SVG Export Plug-In . SVG Version: 6.00 Build 0)  -->
<!DOCTYPE svg PUBLIC "-//W3C//DTD SVG 1.1//EN" "http://www.w3.org/Graphics/SVG/1.1/DTD/svg11.dtd">
<svg version="1.1" id="delivery-truck" xmlns="http://www.w3.org/2000/svg" xmlns:xlink="http://www.w3.org/1999/xlink" x="0px"
	 y="0px" viewBox="0 0 1010 1010" enable-background="new 0 0 1010 1010" xml:space="preserve">
<g id="delivery-truck-delivery-truck">
	<path id="delivery-truck-label" fill="#ACAF48" d="M1010,505c0,278.9043-226.1055,505-505,505C226.0859,1010,0,783.9043,0,505
		S226.0859,0,505,0C783.8945,0,1010,226.0957,1010,505z"/>
	<g id="delivery-truck-delivery-truck_1_">
		<path fill="#FFFFFF" d="M351.7739,726.667c-28.5639,0-51.8017-23.2471-51.8017-51.8213c0-28.5645,23.2378-51.8018,51.8017-51.8018
			c28.5738,0,51.8316,23.2373,51.8316,51.8018C403.6055,703.4199,380.3477,726.667,351.7739,726.667L351.7739,726.667z"/>
		<path fill="#FC6E51" d="M404.2368,679.5605l-0.8779-9.4785c-2.4068-26.3846-25.0825-47.0381-51.585-47.0381
			c-26.4926,0-49.1489,20.6534-51.5551,47.0381l-0.878,9.4785H252.875c-10.396,0-18.8584-8.4433-18.8584-18.8496V378.0986
			c0-10.3955,8.4624-18.8388,18.8584-18.8388h282.6123c10.3862,0,18.8389,8.4433,18.8389,18.8388v43.5371l-0.1084,0.7691
			c-0.148,0.9272-0.3155,1.8345-0.3155,2.8013v27.2421l0.4239,10.4356v216.6767H404.2368z"/>
		<path fill="#FFFFFF" d="M681.5137,726.667c-28.584,0-51.8223-23.2471-51.8223-51.8213c0-28.5645,23.2383-51.8018,51.8223-51.8018
			c28.5634,0,51.8115,23.2373,51.8115,51.8018C733.3252,703.4199,710.0771,726.667,681.5137,726.667L681.5137,726.667z"/>
		<path fill="#FFB933" d="M733.957,679.5605l-0.8789-9.4785c-2.4062-26.3846-25.0625-47.0381-51.5644-47.0381
			c-26.5127,0-49.169,20.6534-51.5752,47.0381l-0.878,9.4785h-74.7343V444.0449h131.9023c10.3858,0,18.8281,8.4531,18.8281,18.8389
			l37.6778,84.7842l56.5371,9.4297h1.5185l1.2129,0.414c9.3409,2.7715,16.0967,18.5625,16.0967,27.834v56.5371h-55.5098h55.5098
			v18.8281c0,10.4063-8.4424,18.8496-18.8281,18.8496H733.957z"/>
		<g>
			<g>
				<path fill="#454545" d="M799.2715,689.6602h-56.5371V669.46h56.5371c4.8125,0,8.7285-3.9248,8.7285-8.7491v-75.3652
					c0-7.1406-5.9521-17.418-8.8916-18.168c-0.5576,0-0.9473-0.0294-1.499-0.1181l-56.5371-9.4287
					c-3.3477-0.5528-6.1885-2.7618-7.5694-5.8594l-37.6777-84.7852c-0.5723-1.291-0.8682-2.6826-0.8682-4.1025
					c0-4.8233-3.916-8.7393-8.7285-8.7393H554.3262v-20.1992h131.9023c15.1592,0,27.6319,11.7168,28.835,26.5811l34.6943,78.0673
					l50.5,8.4239c16.8408,0.8477,27.9424,23.3564,27.9424,38.3281v75.3652C828.2002,676.6797,815.2246,689.6602,799.2715,689.6602
					L799.2715,689.6602z"/>
			</g>
			<g>
				<path fill="#454545" d="M290.543,689.6602h-37.668c-15.9688,0-28.959-12.9805-28.959-28.9493V538.2393h20.2002v122.4716
					c0,4.8243,3.9307,8.7491,8.7588,8.7491h37.668V689.6602L290.543,689.6602z"/>
			</g>
			<g>
				<polygon fill="#454545" points="629.6914,689.6602 403.6055,689.6602 403.6055,669.46 629.6914,669.46 629.6914,689.6602 				
					"/>
			</g>
			<g>
				<path fill="#454545" d="M351.7739,736.7676c-34.1318,0-61.9018-27.7754-61.9018-61.9219c0-34.127,27.77-61.9023,61.9018-61.9023
					c34.1519,0,61.9317,27.7753,61.9317,61.9023C413.7056,708.9922,385.9258,736.7676,351.7739,736.7676L351.7739,736.7676z
					 M351.7739,633.1436c-22.9961,0-41.7016,18.7011-41.7016,41.7021s18.7055,41.7217,41.7016,41.7217
					c23.0113,0,41.732-18.7207,41.732-41.7217S374.7852,633.1436,351.7739,633.1436L351.7739,633.1436z"/>
			</g>
			<g>
				<path fill="#454545" d="M681.5137,736.7676c-34.1426,0-61.9219-27.7754-61.9219-61.9219
					c0-34.127,27.7793-61.9023,61.9219-61.9023c34.1367,0,61.9121,27.7753,61.9121,61.9023
					C743.4258,708.9922,715.6504,736.7676,681.5137,736.7676L681.5137,736.7676z M681.5137,633.1436
					c-23.0059,0-41.7217,18.7011-41.7217,41.7021s18.7158,41.7217,41.7217,41.7217c23.0009,0,41.7109-18.7207,41.7109-41.7217
					S704.5146,633.1436,681.5137,633.1436L681.5137,633.1436z"/>
			</g>
			<g>
				<polygon fill="#454545" points="808.6904,651.9824 752.1641,651.9824 752.1641,631.7822 808.6904,631.7822 808.6904,651.9824 
									"/>
			</g>
			<g>
				<polygon fill="#454545" points="564.4263,670.1309 544.2266,670.1309 544.2266,444.0449 564.4263,444.0449 564.4263,670.1309 
									"/>
			</g>
			<g>
				<polygon fill="#454545" points="620.2725,601.7187 591.9941,601.7187 591.9941,581.5195 620.2725,581.5195 620.2725,601.7187 
									"/>
			</g>
			<g>
				<path fill="#454545" d="M564.4263,585.3457h-20.1997V378.0986c0-4.8227-3.9209-8.7382-8.7393-8.7382H252.875
					c-4.8281,0-8.7588,3.9155-8.7588,8.7382v207.2471H223.916V378.0986c0-15.9585,12.9902-28.9384,28.959-28.9384h282.6123
					c15.959,0,28.939,12.9799,28.939,28.9384V585.3457L564.4263,585.3457z"/>
			</g>
			<g>
				<polygon fill="#454545" points="526.0684,425.877 252.875,425.877 252.875,405.6768 526.0684,405.6768 526.0684,425.877 				"/>
			</g>
			<g>
				<polygon fill="#454545" points="526.0684,501.252 252.875,501.252 252.875,481.0518 526.0684,481.0518 526.0684,501.252 				"/>
			</g>
			<g>
				<polygon fill="#454545" points="526.0684,576.6074 252.875,576.6074 252.875,556.4072 526.0684,556.4072 526.0684,576.6074 				
					"/>
			</g>
			<g>
				<path fill="#3BAFDA" d="M582.5947,548.7139c0,5.2079,4.2217,9.4189,9.3994,9.4189h103.6534
					c5.1982,0,9.4091-4.2109,9.4091-9.4189l-28.2578-56.5362c0-5.208-4.2217-9.4199-9.4297-9.4199h-75.375
					c-5.1777,0-9.3994,4.2119-9.3994,9.4199V548.7139z"/>
				<path fill="#454545" d="M695.6475,568.2334H591.9941c-10.7509,0-19.4995-8.7588-19.4995-19.5195v-56.5362
					c0-10.7607,8.7486-19.5195,19.4995-19.5195h75.375c9.8243,0,17.9805,7.2891,19.3321,16.748l27.3906,54.7901
					c0.7002,1.4014,1.0654,2.9394,1.0654,4.5176C715.1572,559.4746,706.4033,568.2334,695.6475,568.2334L695.6475,568.2334z
					 M666.6992,492.1777l-74.7051,0.6807l0.7002,55.8555l100.7393-0.6709l-25.6699-51.3477
					C667.0635,495.2949,666.6992,493.7559,666.6992,492.1777L666.6992,492.1777z"/>
			</g>
		</g>
		<g>
			<g>
				<path fill="#FFFFFF" d="M329.6504,263.1328c53.7749,0,97.3608,43.5957,97.3608,97.3506
					c0,53.7744-43.5859,97.3506-97.3608,97.3506c-53.7744,0-97.3506-43.5762-97.3506-97.3506
					C232.2998,306.7285,275.876,263.1328,329.6504,263.1328z"/>
				<path fill="#454545" d="M329.6504,467.9336c-59.2485,0-107.4502-48.1919-107.4502-107.4502
					c0-59.2393,48.2017-107.4512,107.4502-107.4512c59.2539,0,107.4609,48.2119,107.4609,107.4512
					C437.1113,419.7417,388.9043,467.9336,329.6504,467.9336L329.6504,467.9336z M329.6504,273.2324
					c-48.1079,0-87.25,39.1475-87.25,87.251c0,48.1128,39.1421,87.25,87.25,87.25c48.1182,0,87.2607-39.1372,87.2607-87.25
					C416.9111,312.3799,377.7686,273.2324,329.6504,273.2324L329.6504,273.2324z"/>
			</g>
			<g>
				<polygon fill="#454545" points="385.2896,370.2676 319.4028,370.2676 319.4028,284.4175 339.6025,284.4175 339.6025,350.0674 
					385.2896,350.0674 385.2896,370.2676 				"/>
			</g>
		</g>
	</g>
</g>
</svg>
