<svg width="44.000000" height="44.000000" viewBox="0 0 44 44" fill="none" xmlns="http://www.w3.org/2000/svg" xmlns:xlink="http://www.w3.org/1999/xlink">
	<desc>
			Created with Pixso.
	</desc>
	<defs/>
	<path id="Vector" d="M22 44C9.8494 44 0 34.1506 0 22C0 9.8494 9.8494 0 22 0C34.1506 0 44 9.8494 44 22C44 34.1506 34.1506 44 22 44ZM22 39.6C26.6678 39.6 31.1444 37.7457 34.4451 34.4451C37.7457 31.1444 39.6 26.6678 39.6 22C39.6 17.3322 37.7457 12.8556 34.4451 9.55492C31.1444 6.25429 26.6678 4.39999 22 4.39999C17.3322 4.39999 12.8556 6.25429 9.55493 9.55492C6.25427 12.8556 4.39999 17.3322 4.39999 22C4.39999 26.6678 6.25427 31.1444 9.55493 34.4451C12.8556 37.7457 17.3322 39.6 22 39.6ZM21.8 30.8L22.2 30.8C23.3046 30.8 24.2 31.6954 24.2 32.8L24.2 33.2C24.2 34.3046 23.3046 35.2 22.2 35.2L21.8 35.2C20.6954 35.2 19.8 34.3046 19.8 33.2L19.8 32.8C19.8 31.6954 20.6954 30.8 21.8 30.8ZM20.8 26.4176C21.6827 26.4176 22.9434 26.4176 23.7 26.4176C23.9761 26.4176 24.1978 26.1871 24.3015 25.9312C25.1333 23.8765 30.8 21.677 30.8 17.6C30.8 12.738 26.8994 8.8 22.0198 8.8C20.8625 8.79739 19.7161 9.02309 18.6461 9.46417C17.5761 9.90524 16.6037 10.553 15.7845 11.3705C14.9652 12.1879 14.3152 13.1588 13.8717 14.2278C13.6846 14.6789 13.5358 15.1436 13.4263 15.6172C13.1774 16.6933 14.0954 17.6 15.2 17.6L15.6 17.6C16.7046 17.6 17.5612 16.66 18.0492 15.669C18.7676 14.21 20.2716 13.2 22 13.2C24.42 13.2 26.4 15.18 26.4 17.6C26.4 19.3983 20.956 22.2254 19.9566 25.4338C19.7924 25.9611 20.2477 26.4176 20.8 26.4176Z" fill="#2EC65B" fill-opacity="1.000000" fill-rule="evenodd"/>
</svg>
