<svg width="56.000000" height="56.000000" viewBox="0 0 56 56" fill="none" xmlns="http://www.w3.org/2000/svg" xmlns:xlink="http://www.w3.org/1999/xlink">
	<desc>
			Created with Pixso.
	</desc>
	<defs/>
	<path id="Vector" d="M15.3051 32.3083C15.3821 32.3342 15.4614 32.3531 15.5419 32.3645C16.0496 33.5738 16.5545 34.7844 17.0565 35.9962C17.9592 38.1766 18.869 40.4224 19.0682 41.0682C19.3176 41.8627 19.5797 42.4033 19.8668 42.7733C20.0157 42.962 20.1862 43.1289 20.3871 43.2559C20.4919 43.3221 20.6039 43.3757 20.7209 43.4155C21.2952 43.6332 21.8192 43.5425 22.1476 43.4318C22.3403 43.3653 22.5237 43.2739 22.6932 43.1597L22.7021 43.1561L27.7734 39.9598L33.6326 44.4985C33.7188 44.5656 33.8121 44.6218 33.9125 44.6672C34.616 44.9755 35.2979 45.0844 35.9404 44.9973C36.5792 44.9066 37.0871 44.6363 37.4658 44.3298C37.9005 43.9755 38.2471 43.5232 38.4778 43.0091L38.494 42.9692L38.4994 42.9547L38.503 42.9475L38.503 42.9438L38.5048 42.942C38.5359 42.864 38.56 42.7832 38.5765 42.7008L43.9243 15.4452C43.9412 15.3579 43.9496 15.2692 43.9494 15.1803C43.9494 14.3822 43.6515 13.6221 42.9534 13.1632C42.3541 12.7695 41.6883 12.7514 41.2665 12.784C40.8143 12.8203 40.3944 12.9328 40.1127 13.0235C39.955 13.074 39.7993 13.1309 39.6461 13.194L39.6263 13.2031L9.63257 25.0957L9.62897 25.0976C9.52747 25.1353 9.42749 25.177 9.32928 25.2227C9.09143 25.3308 8.86328 25.4595 8.64734 25.6073C8.23999 25.8885 7.30145 26.6612 7.46118 27.9383C7.58679 28.9542 8.27588 29.58 8.69757 29.8811C8.92731 30.0462 9.14624 30.1641 9.30774 30.2421C9.37952 30.2784 9.53381 30.3401 9.60022 30.3691L9.61816 30.3745L15.3051 32.3083ZM40.6761 15.7064L40.6725 15.7064C40.6571 15.7133 40.6416 15.72 40.6259 15.7264L10.5962 27.6354C10.5807 27.6417 10.5652 27.6477 10.5496 27.6535L10.5316 27.659C10.4767 27.6807 10.4229 27.705 10.3701 27.7315C10.42 27.7604 10.4716 27.7865 10.5244 27.8095L16.1628 29.7287C16.2636 29.7631 16.36 29.8093 16.45 29.8666L35.0718 18.8465L35.0898 18.8374C35.1621 18.793 35.2363 18.7518 35.3123 18.7141C35.4415 18.6469 35.6479 18.549 35.8812 18.4764C36.0427 18.4256 36.5218 18.2823 37.0386 18.451C37.3127 18.5384 37.5571 18.7019 37.7437 18.9229C37.9302 19.1439 38.0516 19.4135 38.0938 19.7009C38.1606 19.9526 38.1625 20.2174 38.0992 20.47C37.9736 20.9689 37.629 21.3571 37.315 21.6546C37.0458 21.9085 33.5536 25.3116 30.1099 28.6712L25.4208 33.2425L24.5864 34.0588L35.1239 42.2255C35.2661 42.2858 35.4206 42.3107 35.5743 42.298C35.6517 42.2874 35.7245 42.2547 35.7842 42.2037C35.857 42.1416 35.9194 42.0681 35.9691 41.986L35.9727 41.9842L41.1589 15.5486C40.9955 15.5883 40.8353 15.6405 40.6797 15.7046L40.6761 15.7064ZM25.4926 38.1893L23.3894 36.5603L22.8798 39.8346L25.4926 38.1893ZM21.4603 33.3278L23.5509 31.287L28.2401 26.712L29.9861 25.0105L18.2858 31.9346L18.3486 32.0833C19.0865 33.8455 19.8163 35.6112 20.5379 37.3803L21.0458 34.115C21.0917 33.8122 21.2379 33.5358 21.4603 33.3278Z" fill="#51B1E9" fill-opacity="1.000000" fill-rule="evenodd"/>
	<path id="Vector" d="M15.3992 32.5417Q15.319 32.524 15.2407 32.4976L9.55701 30.565L9.53094 30.5571L9.52014 30.5523Q9.50104 30.544 9.44092 30.5189Q9.27344 30.4489 9.22076 30.4222Q8.87634 30.2559 8.58136 30.0439Q8.12152 29.7155 7.80829 29.2977Q7.51678 28.9088 7.37494 28.4713Q7.2951 28.2249 7.2627 27.9631Q7.21082 27.5483 7.29303 27.1621Q7.39056 26.7042 7.67657 26.2864Q8.0036 25.8086 8.53436 25.4423Q8.76941 25.2814 9.0202 25.1508Q9.13104 25.0931 9.24493 25.0414Q9.34656 24.9941 9.45044 24.9523Q9.49927 24.9326 9.54858 24.9141L9.55042 24.9132L39.5477 13.0191L39.5662 13.0106L39.5699 13.0091Q39.7498 12.935 39.9334 12.8722Q39.9922 12.8521 40.0514 12.8331Q40.6812 12.6304 41.2511 12.5846Q42.1832 12.5125 42.8766 12.8849Q42.9722 12.9362 43.0633 12.996Q43.3247 13.1679 43.5252 13.3939Q43.7471 13.6439 43.8945 13.9601Q44.1494 14.5073 44.1494 15.1799Q44.1495 15.2441 44.1445 15.3078Q44.1375 15.3962 44.1205 15.4837L38.7726 42.7401Q38.7579 42.8135 38.7365 42.8849Q38.7214 42.9349 38.703 42.984L38.703 42.9943L38.6838 43.0331L38.6821 43.0374L38.6805 43.0415L38.6619 43.0876L38.6603 43.091Q38.4687 43.518 38.1892 43.8765Q37.9286 44.2106 37.5916 44.4852Q37.2061 44.7973 36.7668 44.9789Q36.3871 45.1359 35.9672 45.1955Q35.9499 45.1978 35.9325 45.2Q34.9192 45.3268 33.8303 44.8495Q33.7093 44.7948 33.6005 44.7219Q33.5542 44.6909 33.5101 44.6566L27.7617 40.2036L22.7936 43.3348L22.7872 43.3374Q22.6658 43.4177 22.5371 43.4832Q22.3799 43.5632 22.2115 43.6213Q21.97 43.7027 21.7224 43.732Q21.6287 43.743 21.5341 43.7466Q21.2911 43.7559 21.0569 43.7147Q20.8517 43.6786 20.6533 43.6037Q20.5595 43.5716 20.4705 43.5295Q20.3726 43.4833 20.2803 43.4249Q19.9731 43.2309 19.7087 42.8959Q19.2446 42.2977 18.8771 41.1271Q18.6226 40.3021 16.8719 36.0732L15.3992 32.5417ZM20.7209 43.4155C21.2952 43.6332 21.8192 43.5425 22.1476 43.4318C22.3403 43.3653 22.5237 43.2739 22.6932 43.1597L22.7021 43.1561L27.7734 39.9598L33.6326 44.4985C33.7188 44.5656 33.8121 44.6218 33.9125 44.6672C34.616 44.9755 35.2979 45.0844 35.9404 44.9973C36.5792 44.9066 37.0871 44.6363 37.4658 44.3298C37.9005 43.9755 38.2471 43.5232 38.4778 43.0091L38.494 42.9692L38.4994 42.9547L38.503 42.9475L38.503 42.9438L38.5048 42.942C38.5359 42.864 38.56 42.7832 38.5765 42.7008L43.9243 15.4452C43.9412 15.3579 43.9496 15.2692 43.9494 15.1803C43.9494 14.3822 43.6515 13.6221 42.9534 13.1632C42.3541 12.7695 41.6883 12.7514 41.2665 12.784C40.8143 12.8203 40.3944 12.9328 40.1127 13.0235C39.955 13.074 39.7993 13.1309 39.6461 13.194L39.6263 13.2031L9.63257 25.0957L9.62897 25.0976C9.52747 25.1353 9.42749 25.177 9.32928 25.2227C9.09143 25.3308 8.86328 25.4595 8.64734 25.6073C8.23999 25.8885 7.30145 26.6612 7.46118 27.9383C7.58679 28.9542 8.27588 29.58 8.69757 29.8811C8.92731 30.0462 9.14624 30.1641 9.30774 30.2421C9.37952 30.2784 9.53381 30.3401 9.60022 30.3691L9.61816 30.3745L15.3051 32.3083C15.3821 32.3342 15.4614 32.3531 15.5419 32.3645C16.0496 33.5738 16.5545 34.7844 17.0565 35.9962C17.9592 38.1766 18.869 40.4224 19.0682 41.0682C19.3176 41.8627 19.5797 42.4033 19.8668 42.7733C20.0157 42.962 20.1862 43.1289 20.3871 43.2559C20.4919 43.3221 20.6039 43.3757 20.7209 43.4155ZM40.6761 15.7064L40.6725 15.7064C40.6571 15.7133 40.6416 15.72 40.6259 15.7264L10.6134 27.6285L10.6012 27.6334L10.5962 27.6354C10.5914 27.6373 10.5865 27.6393 10.5817 27.6412C10.571 27.6454 10.5603 27.6495 10.5496 27.6535L10.5316 27.659C10.4767 27.6807 10.4229 27.705 10.3701 27.7315C10.42 27.7604 10.4716 27.7865 10.5244 27.8095L10.5833 27.8296L10.6019 27.8359L10.6181 27.8414L16.1628 29.7287C16.2636 29.7631 16.36 29.8093 16.45 29.8666L35.0718 18.8465L35.0898 18.8374C35.1621 18.793 35.2363 18.7518 35.3123 18.7141C35.4415 18.6469 35.6479 18.549 35.8812 18.4764C36.0427 18.4256 36.5218 18.2823 37.0386 18.451C37.3127 18.5384 37.5571 18.7019 37.7437 18.9229C37.9302 19.1439 38.0516 19.4135 38.0938 19.7009C38.1606 19.9526 38.1625 20.2174 38.0992 20.47C37.9736 20.9689 37.629 21.3571 37.315 21.6546C37.0458 21.9085 33.5536 25.3116 30.1099 28.6712L25.4208 33.2425L24.7307 33.9176L24.5864 34.0588L24.746 34.1825L35.1239 42.2255C35.2661 42.2858 35.4206 42.3107 35.5743 42.298C35.6517 42.2874 35.7245 42.2547 35.7842 42.2037C35.857 42.1416 35.9194 42.0681 35.9691 41.986L35.9727 41.9842L41.1162 15.7662L41.1589 15.5486C41.0863 15.5662 41.0144 15.5863 40.9432 15.6088C40.8542 15.637 40.7662 15.6689 40.6797 15.7046L40.6761 15.7064ZM40.763 15.8866L40.7239 15.9064L40.7139 15.9064Q40.7075 15.9091 40.7012 15.9116L10.9054 27.7279L16.2273 29.5394Q16.3098 29.5675 16.3882 29.6045Q16.4188 29.619 16.4489 29.6349L34.9757 18.671L34.9922 18.6626Q35.0508 18.6268 35.1108 18.5938Q35.1664 18.5632 35.2233 18.535Q35.5271 18.3771 35.8218 18.2854Q36.4355 18.0924 36.9698 18.2235Q37.0359 18.2397 37.1007 18.2609Q37.3256 18.3326 37.5166 18.4566Q37.7272 18.5934 37.8965 18.7939Q38.0536 18.98 38.1514 19.1933Q38.2521 19.4125 38.29 19.6606Q38.3447 19.8718 38.3463 20.0835Q38.3478 20.3009 38.2932 20.5186Q38.1985 20.8945 37.9402 21.2544Q37.7534 21.5147 37.4525 21.7998L30.3966 28.6709L30.2496 28.8143L25.5604 33.3857L24.8903 34.0413L35.2247 42.0506Q35.3008 42.0802 35.3797 42.0925Q35.4642 42.1058 35.5519 42.0992Q35.5778 42.0951 35.6012 42.085Q35.6297 42.0727 35.6544 42.0516Q35.6941 42.0178 35.7279 41.9788Q35.7587 41.9433 35.7847 41.9036L40.8989 15.8346Q40.8304 15.859 40.763 15.8866ZM28.1004 26.5689L23.4113 31.1438L23.4113 31.1439L21.3237 33.1817Q21.1252 33.3674 21.006 33.5946Q20.8884 33.8192 20.8481 34.0843L20.45 36.644L18.5379 32.0178L28.6492 26.0341L28.1004 26.5689ZM29.2564 25.4423L18.2858 31.9346L18.3486 32.0833C19.0366 33.7263 19.7175 35.3723 20.3914 37.0213C20.4402 37.1409 20.4891 37.2606 20.5379 37.3803L20.5971 36.9998L21.0458 34.115C21.0917 33.8122 21.2379 33.5358 21.4603 33.3278L23.5509 31.287L28.2401 26.712L29.3789 25.6022L29.9861 25.0105L29.2564 25.4423ZM23.3894 36.5603L23.5701 36.7002L25.3243 38.0589L25.4926 38.1893L25.3124 38.3027L23.1042 39.6933L22.8798 39.8346L22.9206 39.5726L23.3543 36.7861L23.3894 36.5603ZM23.5349 36.926L23.145 39.4313L25.1442 38.1724L23.5349 36.926Z" fill="#51B1E9" fill-opacity="1.000000" fill-rule="evenodd"/>
	<circle id="Ellipse 1" cx="28.000000" cy="28.000000" r="26.500000" stroke="#51B1E9" stroke-opacity="1.000000" stroke-width="3.000000"/>
</svg>
