<svg width="56.000000" height="56.000000" viewBox="0 0 56 56" fill="none" xmlns="http://www.w3.org/2000/svg" xmlns:xlink="http://www.w3.org/1999/xlink">
	<desc>
			Created with Pixso.
	</desc>
	<defs/>
	<path id="Vector" d="M47.8392 8.14814C45.2593 5.55515 42.1862 3.49923 38.7994 2.1003C35.4125 0.701378 31.7796 -0.0125427 28.1125 0.000167847C12.7477 0.000167847 0.225098 12.4601 0.225098 27.7481C0.225098 32.6481 1.51959 37.4081 3.9397 41.608L0 56L14.7739 52.136C18.8542 54.348 23.4412 55.524 28.1125 55.524C43.4774 55.524 56 43.064 56 27.7761C56 20.3561 53.1015 13.3841 47.8392 8.14814ZM28.1125 50.82C23.9478 50.82 19.8673 49.7 16.2935 47.6L15.4492 47.096L6.66937 49.392L9.005 40.88L8.4422 40.0121C6.12836 36.3356 4.89972 32.086 4.89648 27.7481C4.89648 15.0361 15.3085 4.67616 28.0844 4.67616C34.2754 4.67616 40.1005 7.08414 44.4623 11.4521C46.6221 13.5912 48.3336 16.1356 49.4978 18.9377C50.6619 21.7398 51.2556 24.744 51.2442 27.7761C51.3005 40.488 40.8884 50.82 28.1125 50.82ZM40.8322 33.5721C40.1287 33.2361 36.6955 31.5561 36.0764 31.3041C35.4291 31.0801 34.9789 30.9681 34.5005 31.6401C34.0221 32.3401 32.6995 33.9081 32.3055 34.3561C31.9116 34.8321 31.4894 34.8881 30.7859 34.5241C30.0824 34.1881 27.8312 33.4321 25.1859 31.0801C23.1035 29.2321 21.7246 26.9641 21.3025 26.2641C20.9086 25.5641 21.2462 25.2001 21.6121 24.8361C21.9216 24.5281 22.3156 24.0241 22.6533 23.6321C22.991 23.2401 23.1317 22.9321 23.3568 22.4841C23.5819 22.0081 23.4694 21.6161 23.3005 21.2801C23.1317 20.9441 21.7246 17.5281 21.1618 16.1281C20.599 14.7841 20.0081 14.9521 19.5859 14.9241L18.2352 14.9241C17.7568 14.9241 17.0251 15.0921 16.3779 15.7921C15.7588 16.4921 13.9578 18.1721 13.9578 21.5881C13.9578 25.0041 16.4623 28.3081 16.8 28.7561C17.1377 29.2321 21.7246 36.2321 28.7035 39.2281C30.3638 39.956 31.6583 40.3761 32.6713 40.6841C34.3317 41.216 35.8513 41.132 37.0613 40.964C38.412 40.768 41.198 39.284 41.7608 37.66C42.3517 36.0361 42.3517 34.6641 42.1548 34.3561C41.9578 34.0481 41.5356 33.9081 40.8322 33.5721Z" fill="#2EC65B" fill-opacity="1.000000" fill-rule="evenodd"/>
</svg>
